<?xml version="1.0" encoding="UTF-8"?>
<!DOCTYPE svg PUBLIC "-//W3C//DTD SVG 1.1//EN" "http://www.w3.org/Graphics/SVG/1.1/DTD/svg11.dtd">
<svg version="1.2" width="2540mm" height="228.6mm" viewBox="0 0 254000 22860" preserveAspectRatio="xMidYMid" fill-rule="evenodd" stroke-width="28.222" stroke-linejoin="round" xmlns="http://www.w3.org/2000/svg" xmlns:ooo="http://xml.openoffice.org/svg/export" xmlns:xlink="http://www.w3.org/1999/xlink" xmlns:presentation="http://sun.com/xmlns/staroffice/presentation" xmlns:smil="http://www.w3.org/2001/SMIL20/" xmlns:anim="urn:oasis:names:tc:opendocument:xmlns:animation:1.0" xmlns:svg="urn:oasis:names:tc:opendocument:xmlns:svg-compatible:1.0" xml:space="preserve">
 <defs class="ClipPathGroup">
  <clipPath id="presentation_clip_path" clipPathUnits="userSpaceOnUse">
   <rect x="0" y="0" width="254000" height="22860"/>
  </clipPath>
  <clipPath id="presentation_clip_path_shrink" clipPathUnits="userSpaceOnUse">
   <rect x="254" y="22" width="253492" height="22815"/>
  </clipPath>
 </defs>
 <defs class="TextShapeIndex">
  <g ooo:slide="id1" ooo:id-list="id3 id4 id5 id6 id7 id8 id9"/>
 </defs>
 <defs class="EmbeddedBulletChars">
  <g id="bullet-char-template-57356" transform="scale(0.00048828125,-0.00048828125)">
   <path d="M 580,1141 L 1163,571 580,0 -4,571 580,1141 Z"/>
  </g>
  <g id="bullet-char-template-57354" transform="scale(0.00048828125,-0.00048828125)">
   <path d="M 8,1128 L 1137,1128 1137,0 8,0 8,1128 Z"/>
  </g>
  <g id="bullet-char-template-10146" transform="scale(0.00048828125,-0.00048828125)">
   <path d="M 174,0 L 602,739 174,1481 1456,739 174,0 Z M 1358,739 L 309,1346 659,739 1358,739 Z"/>
  </g>
  <g id="bullet-char-template-10132" transform="scale(0.00048828125,-0.00048828125)">
   <path d="M 2015,739 L 1276,0 717,0 1260,543 174,543 174,936 1260,936 717,1481 1274,1481 2015,739 Z"/>
  </g>
  <g id="bullet-char-template-10007" transform="scale(0.00048828125,-0.00048828125)">
   <path d="M 0,-2 C -7,14 -16,27 -25,37 L 356,567 C 262,823 215,952 215,954 215,979 228,992 255,992 264,992 276,990 289,987 310,991 331,999 354,1012 L 381,999 492,748 772,1049 836,1024 860,1049 C 881,1039 901,1025 922,1006 886,937 835,863 770,784 769,783 710,716 594,584 L 774,223 C 774,196 753,168 711,139 L 727,119 C 717,90 699,76 672,76 641,76 570,178 457,381 L 164,-76 C 142,-110 111,-127 72,-127 30,-127 9,-110 8,-76 1,-67 -2,-52 -2,-32 -2,-23 -1,-13 0,-2 Z"/>
  </g>
  <g id="bullet-char-template-10004" transform="scale(0.00048828125,-0.00048828125)">
   <path d="M 285,-33 C 182,-33 111,30 74,156 52,228 41,333 41,471 41,549 55,616 82,672 116,743 169,778 240,778 293,778 328,747 346,684 L 369,508 C 377,444 397,411 428,410 L 1163,1116 C 1174,1127 1196,1133 1229,1133 1271,1133 1292,1118 1292,1087 L 1292,965 C 1292,929 1282,901 1262,881 L 442,47 C 390,-6 338,-33 285,-33 Z"/>
  </g>
  <g id="bullet-char-template-9679" transform="scale(0.00048828125,-0.00048828125)">
   <path d="M 813,0 C 632,0 489,54 383,161 276,268 223,411 223,592 223,773 276,916 383,1023 489,1130 632,1184 813,1184 992,1184 1136,1130 1245,1023 1353,916 1407,772 1407,592 1407,412 1353,268 1245,161 1136,54 992,0 813,0 Z"/>
  </g>
  <g id="bullet-char-template-8226" transform="scale(0.00048828125,-0.00048828125)">
   <path d="M 346,457 C 273,457 209,483 155,535 101,586 74,649 74,723 74,796 101,859 155,911 209,963 273,989 346,989 419,989 480,963 531,910 582,859 608,796 608,723 608,648 583,586 532,535 482,483 420,457 346,457 Z"/>
  </g>
  <g id="bullet-char-template-8211" transform="scale(0.00048828125,-0.00048828125)">
   <path d="M -4,459 L 1135,459 1135,606 -4,606 -4,459 Z"/>
  </g>
  <g id="bullet-char-template-61548" transform="scale(0.00048828125,-0.00048828125)">
   <path d="M 173,740 C 173,903 231,1043 346,1159 462,1274 601,1332 765,1332 928,1332 1067,1274 1183,1159 1299,1043 1357,903 1357,740 1357,577 1299,437 1183,322 1067,206 928,148 765,148 601,148 462,206 346,322 231,437 173,577 173,740 Z"/>
  </g>
 </defs>
 <g>
  <g id="id2" class="Master_Slide">
   <g id="bg-id2" class="Background"/>
   <g id="bo-id2" class="BackgroundObjects"/>
  </g>
 </g>
 <g class="SlideGroup">
  <g>
   <g id="container-id1">
    <g id="id1" class="Slide" clip-path="url(#presentation_clip_path)">
     <g class="Page">
      <defs class="SlideBackground">
       <g id="bg-id1" class="Background">
        <path fill="rgb(0,0,0)" stroke="none" d="M 126987,22846 L -13,22846 -13,-13 253986,-13 253986,22846 126987,22846 Z"/>
       </g>
      </defs>
      <g class="com.sun.star.drawing.CustomShape">
       <g id="id3">
        <rect class="BoundingBox" stroke="none" fill="none" x="245508" y="-451" width="4243" height="24307"/>
        <path fill="rgb(223,223,223)" stroke="none" d="M 247629,23854 L 245509,23854 245509,-450 249749,-450 249749,23854 247629,23854 Z"/>
        <path fill="none" stroke="rgb(223,223,223)" d="M 247629,23854 L 245509,23854 245509,-450 249749,-450 249749,23854 247629,23854 Z"/>
       </g>
      </g>
      <g class="com.sun.star.drawing.CustomShape">
       <g id="id4">
        <rect class="BoundingBox" stroke="none" fill="none" x="238967" y="-3386" width="7772" height="27765"/>
        <path fill="rgb(223,223,223)" stroke="none" d="M 244764,24099 L 242792,24377 238968,-2831 242913,-3385 246737,23822 244764,24099 Z"/>
        <path fill="none" stroke="rgb(223,223,223)" d="M 244764,24099 L 242792,24377 238968,-2831 242913,-3385 246737,23822 244764,24099 Z"/>
       </g>
      </g>
      <g class="com.sun.star.drawing.CustomShape">
       <g id="id5">
        <rect class="BoundingBox" stroke="none" fill="none" x="233181" y="-4104" width="17265" height="33619"/>
        <path fill="rgb(223,223,223)" stroke="none" d="M 247889,28532 L 245333,29513 233182,-2141 238293,-4103 250444,27551 247889,28532 Z"/>
        <path fill="none" stroke="rgb(223,223,223)" d="M 247889,28532 L 245333,29513 233182,-2141 238293,-4103 250444,27551 247889,28532 Z"/>
       </g>
      </g>
      <g class="com.sun.star.drawing.CustomShape">
       <g id="id6">
        <rect class="BoundingBox" stroke="none" fill="none" x="228770" y="-5773" width="13987" height="34099"/>
        <path fill="rgb(223,223,223)" stroke="none" d="M 229678,27994 L 228771,27664 240941,-5772 242755,-5112 230585,28324 229678,27994 Z"/>
        <path fill="none" stroke="rgb(223,223,223)" d="M 229678,27994 L 228771,27664 240941,-5772 242755,-5112 230585,28324 229678,27994 Z"/>
       </g>
      </g>
      <g class="com.sun.star.drawing.CustomShape">
       <g id="id7">
        <rect class="BoundingBox" stroke="none" fill="none" x="227059" y="-5103" width="16707" height="31987"/>
        <path fill="rgb(223,223,223)" stroke="none" d="M 227335,-4962 L 227610,-5102 243764,26602 243214,26882 227060,-4822 227335,-4962 Z"/>
        <path fill="none" stroke="rgb(223,223,223)" d="M 227335,-4962 L 227610,-5102 243764,26602 243214,26882 227060,-4822 227335,-4962 Z"/>
       </g>
      </g>
      <g class="com.sun.star.drawing.CustomShape">
       <g id="id8">
        <rect class="BoundingBox" stroke="none" fill="none" x="253375" y="-451" width="4243" height="24307"/>
        <path fill="rgb(223,223,223)" stroke="none" d="M 255496,23854 L 253376,23854 253376,-450 257616,-450 257616,23854 255496,23854 Z"/>
        <path fill="none" stroke="rgb(223,223,223)" d="M 255496,23854 L 253376,23854 253376,-450 257616,-450 257616,23854 255496,23854 Z"/>
       </g>
      </g>
      <g class="com.sun.star.drawing.CustomShape">
       <g id="id9">
        <rect class="BoundingBox" stroke="none" fill="none" x="250643" y="-469" width="3358" height="24323"/>
        <path fill="rgb(223,223,223)" stroke="none" d="M 251262,23798 L 250644,23744 252762,-468 253999,-360 251881,23852 251262,23798 Z"/>
        <path fill="none" stroke="rgb(223,223,223)" d="M 251262,23798 L 250644,23744 252762,-468 253999,-360 251881,23852 251262,23798 Z"/>
       </g>
      </g>
     </g>
    </g>
   </g>
  </g>
 </g>
</svg>